<mxfile host="Electron" modified="2024-05-03T21:13:56.424Z" agent="Mozilla/5.0 (Macintosh; Intel Mac OS X 10_15_7) AppleWebKit/537.36 (KHTML, like Gecko) draw.io/24.2.5 Chrome/120.0.6099.109 Electron/28.1.0 Safari/537.36" etag="jLptkKd4ASoZzxGFziMK" version="24.2.5" type="device">
  <diagram name="Page-1" id="yqoNenuwolL969Qlqj8R">
    <mxGraphModel dx="707" dy="539" grid="1" gridSize="10" guides="1" tooltips="1" connect="1" arrows="1" fold="1" page="1" pageScale="1" pageWidth="1654" pageHeight="1169" math="0" shadow="0">
      <root>
        <mxCell id="0" />
        <mxCell id="1" parent="0" />
        <mxCell id="H8jDWzp9mK-VArGCJBOk-14" value="fork" style="rounded=0;orthogonalLoop=1;jettySize=auto;html=1;" edge="1" parent="1" source="H8jDWzp9mK-VArGCJBOk-1" target="H8jDWzp9mK-VArGCJBOk-3">
          <mxGeometry x="-0.0513" y="-8" relative="1" as="geometry">
            <mxPoint as="offset" />
          </mxGeometry>
        </mxCell>
        <mxCell id="H8jDWzp9mK-VArGCJBOk-15" style="rounded=0;orthogonalLoop=1;jettySize=auto;html=1;" edge="1" parent="1" source="H8jDWzp9mK-VArGCJBOk-1" target="H8jDWzp9mK-VArGCJBOk-4">
          <mxGeometry relative="1" as="geometry" />
        </mxCell>
        <mxCell id="H8jDWzp9mK-VArGCJBOk-20" value="fork" style="edgeLabel;html=1;align=center;verticalAlign=middle;resizable=0;points=[];" vertex="1" connectable="0" parent="H8jDWzp9mK-VArGCJBOk-15">
          <mxGeometry x="-0.112" y="1" relative="1" as="geometry">
            <mxPoint as="offset" />
          </mxGeometry>
        </mxCell>
        <mxCell id="H8jDWzp9mK-VArGCJBOk-16" style="rounded=0;orthogonalLoop=1;jettySize=auto;html=1;entryX=0.5;entryY=0;entryDx=0;entryDy=0;exitX=0.65;exitY=0.975;exitDx=0;exitDy=0;exitPerimeter=0;" edge="1" parent="1" source="H8jDWzp9mK-VArGCJBOk-1" target="H8jDWzp9mK-VArGCJBOk-5">
          <mxGeometry relative="1" as="geometry" />
        </mxCell>
        <mxCell id="H8jDWzp9mK-VArGCJBOk-21" value="fork" style="edgeLabel;html=1;align=center;verticalAlign=middle;resizable=0;points=[];" vertex="1" connectable="0" parent="H8jDWzp9mK-VArGCJBOk-16">
          <mxGeometry x="-0.15" y="-3" relative="1" as="geometry">
            <mxPoint as="offset" />
          </mxGeometry>
        </mxCell>
        <mxCell id="H8jDWzp9mK-VArGCJBOk-17" style="rounded=0;orthogonalLoop=1;jettySize=auto;html=1;exitX=0.875;exitY=1;exitDx=0;exitDy=0;exitPerimeter=0;" edge="1" parent="1" source="H8jDWzp9mK-VArGCJBOk-1" target="H8jDWzp9mK-VArGCJBOk-6">
          <mxGeometry relative="1" as="geometry" />
        </mxCell>
        <mxCell id="H8jDWzp9mK-VArGCJBOk-22" value="fork" style="edgeLabel;html=1;align=center;verticalAlign=middle;resizable=0;points=[];" vertex="1" connectable="0" parent="H8jDWzp9mK-VArGCJBOk-17">
          <mxGeometry x="-0.2507" y="-3" relative="1" as="geometry">
            <mxPoint x="4" y="3" as="offset" />
          </mxGeometry>
        </mxCell>
        <mxCell id="H8jDWzp9mK-VArGCJBOk-32" style="edgeStyle=orthogonalEdgeStyle;rounded=0;orthogonalLoop=1;jettySize=auto;html=1;curved=1;exitX=1;exitY=0.5;exitDx=0;exitDy=0;" edge="1" parent="1" source="H8jDWzp9mK-VArGCJBOk-1" target="H8jDWzp9mK-VArGCJBOk-24">
          <mxGeometry relative="1" as="geometry">
            <Array as="points">
              <mxPoint x="820" y="60" />
              <mxPoint x="820" y="465" />
            </Array>
          </mxGeometry>
        </mxCell>
        <mxCell id="H8jDWzp9mK-VArGCJBOk-33" value="generate Report" style="edgeLabel;html=1;align=center;verticalAlign=middle;resizable=0;points=[];" vertex="1" connectable="0" parent="H8jDWzp9mK-VArGCJBOk-32">
          <mxGeometry x="0.0276" y="1" relative="1" as="geometry">
            <mxPoint x="49" y="-20" as="offset" />
          </mxGeometry>
        </mxCell>
        <mxCell id="H8jDWzp9mK-VArGCJBOk-1" value="&lt;div style=&quot;text-align: right;&quot;&gt;&lt;span style=&quot;background-color: initial;&quot;&gt;Parent Process&lt;/span&gt;&lt;br&gt;&lt;/div&gt;" style="html=1;align=center;verticalAlign=middle;rounded=1;absoluteArcSize=1;arcSize=10;dashed=0;whiteSpace=wrap;" vertex="1" parent="1">
          <mxGeometry x="400" y="40" width="120" height="40" as="geometry" />
        </mxCell>
        <mxCell id="H8jDWzp9mK-VArGCJBOk-12" style="edgeStyle=orthogonalEdgeStyle;rounded=0;orthogonalLoop=1;jettySize=auto;html=1;" edge="1" parent="1" source="H8jDWzp9mK-VArGCJBOk-3" target="H8jDWzp9mK-VArGCJBOk-11">
          <mxGeometry relative="1" as="geometry" />
        </mxCell>
        <mxCell id="H8jDWzp9mK-VArGCJBOk-13" value="monitors" style="edgeLabel;html=1;align=center;verticalAlign=middle;resizable=0;points=[];" vertex="1" connectable="0" parent="H8jDWzp9mK-VArGCJBOk-12">
          <mxGeometry x="0.089" y="3" relative="1" as="geometry">
            <mxPoint x="-42" y="4" as="offset" />
          </mxGeometry>
        </mxCell>
        <mxCell id="H8jDWzp9mK-VArGCJBOk-34" style="edgeStyle=orthogonalEdgeStyle;rounded=0;orthogonalLoop=1;jettySize=auto;html=1;entryX=0;entryY=0.5;entryDx=0;entryDy=0;curved=1;dashed=1;dashPattern=8 8;" edge="1" parent="1" source="H8jDWzp9mK-VArGCJBOk-3" target="H8jDWzp9mK-VArGCJBOk-1">
          <mxGeometry relative="1" as="geometry">
            <Array as="points">
              <mxPoint x="180" y="60" />
            </Array>
          </mxGeometry>
        </mxCell>
        <mxCell id="H8jDWzp9mK-VArGCJBOk-35" value="sign" style="edgeLabel;html=1;align=center;verticalAlign=middle;resizable=0;points=[];" vertex="1" connectable="0" parent="H8jDWzp9mK-VArGCJBOk-34">
          <mxGeometry x="0.1428" y="-48" relative="1" as="geometry">
            <mxPoint x="-9" y="-8" as="offset" />
          </mxGeometry>
        </mxCell>
        <mxCell id="H8jDWzp9mK-VArGCJBOk-3" value="&lt;div style=&quot;text-align: right;&quot;&gt;&lt;span style=&quot;background-color: initial;&quot;&gt;Child 1&lt;/span&gt;&lt;br&gt;&lt;/div&gt;" style="html=1;align=center;verticalAlign=middle;rounded=1;absoluteArcSize=1;arcSize=10;dashed=0;whiteSpace=wrap;" vertex="1" parent="1">
          <mxGeometry x="140" y="240" width="80" height="40" as="geometry" />
        </mxCell>
        <mxCell id="H8jDWzp9mK-VArGCJBOk-25" style="rounded=0;orthogonalLoop=1;jettySize=auto;html=1;" edge="1" parent="1" source="H8jDWzp9mK-VArGCJBOk-4" target="H8jDWzp9mK-VArGCJBOk-24">
          <mxGeometry relative="1" as="geometry" />
        </mxCell>
        <mxCell id="H8jDWzp9mK-VArGCJBOk-31" value="process files" style="edgeLabel;html=1;align=center;verticalAlign=middle;resizable=0;points=[];" vertex="1" connectable="0" parent="H8jDWzp9mK-VArGCJBOk-25">
          <mxGeometry x="-0.2234" y="2" relative="1" as="geometry">
            <mxPoint x="-20" y="-11" as="offset" />
          </mxGeometry>
        </mxCell>
        <mxCell id="H8jDWzp9mK-VArGCJBOk-4" value="&lt;div style=&quot;text-align: right;&quot;&gt;&lt;span style=&quot;background-color: initial;&quot;&gt;Child 2&lt;/span&gt;&lt;br&gt;&lt;/div&gt;" style="html=1;align=center;verticalAlign=middle;rounded=1;absoluteArcSize=1;arcSize=10;dashed=0;whiteSpace=wrap;" vertex="1" parent="1">
          <mxGeometry x="300" y="240" width="80" height="40" as="geometry" />
        </mxCell>
        <mxCell id="H8jDWzp9mK-VArGCJBOk-26" style="rounded=0;orthogonalLoop=1;jettySize=auto;html=1;" edge="1" parent="1" source="H8jDWzp9mK-VArGCJBOk-5" target="H8jDWzp9mK-VArGCJBOk-24">
          <mxGeometry relative="1" as="geometry" />
        </mxCell>
        <mxCell id="H8jDWzp9mK-VArGCJBOk-30" value="process files" style="edgeLabel;html=1;align=center;verticalAlign=middle;resizable=0;points=[];" vertex="1" connectable="0" parent="H8jDWzp9mK-VArGCJBOk-26">
          <mxGeometry x="-0.275" y="1" relative="1" as="geometry">
            <mxPoint as="offset" />
          </mxGeometry>
        </mxCell>
        <mxCell id="H8jDWzp9mK-VArGCJBOk-27" style="rounded=0;orthogonalLoop=1;jettySize=auto;html=1;" edge="1" parent="1" source="H8jDWzp9mK-VArGCJBOk-6" target="H8jDWzp9mK-VArGCJBOk-24">
          <mxGeometry relative="1" as="geometry" />
        </mxCell>
        <mxCell id="H8jDWzp9mK-VArGCJBOk-29" value="process files" style="edgeLabel;html=1;align=center;verticalAlign=middle;resizable=0;points=[];" vertex="1" connectable="0" parent="H8jDWzp9mK-VArGCJBOk-27">
          <mxGeometry x="-0.2048" y="-1" relative="1" as="geometry">
            <mxPoint as="offset" />
          </mxGeometry>
        </mxCell>
        <mxCell id="H8jDWzp9mK-VArGCJBOk-9" value="Worker_children" style="shape=umlFrame;whiteSpace=wrap;html=1;pointerEvents=0;recursiveResize=0;container=1;collapsible=0;width=160;flipH=1;height=30;" vertex="1" parent="1">
          <mxGeometry x="280" y="190" width="490" height="110" as="geometry" />
        </mxCell>
        <mxCell id="H8jDWzp9mK-VArGCJBOk-6" value="&lt;div style=&quot;text-align: right;&quot;&gt;&lt;span style=&quot;background-color: initial;&quot;&gt;Child 4&lt;/span&gt;&lt;br&gt;&lt;/div&gt;" style="html=1;align=center;verticalAlign=middle;rounded=1;absoluteArcSize=1;arcSize=10;dashed=0;whiteSpace=wrap;" vertex="1" parent="H8jDWzp9mK-VArGCJBOk-9">
          <mxGeometry x="290" y="50" width="80" height="40" as="geometry" />
        </mxCell>
        <mxCell id="H8jDWzp9mK-VArGCJBOk-5" value="&lt;div style=&quot;text-align: right;&quot;&gt;&lt;span style=&quot;background-color: initial;&quot;&gt;Child 3&lt;/span&gt;&lt;br&gt;&lt;/div&gt;" style="html=1;align=center;verticalAlign=middle;rounded=1;absoluteArcSize=1;arcSize=10;dashed=0;whiteSpace=wrap;" vertex="1" parent="H8jDWzp9mK-VArGCJBOk-9">
          <mxGeometry x="160" y="50" width="80" height="40" as="geometry" />
        </mxCell>
        <mxCell id="H8jDWzp9mK-VArGCJBOk-11" value="inputFolder" style="sketch=0;pointerEvents=1;shadow=0;dashed=0;html=1;strokeColor=none;fillColor=#434445;aspect=fixed;labelPosition=center;verticalLabelPosition=bottom;verticalAlign=top;align=center;outlineConnect=0;shape=mxgraph.vvd.folder;" vertex="1" parent="1">
          <mxGeometry x="140" y="420" width="78.95" height="60" as="geometry" />
        </mxCell>
        <mxCell id="H8jDWzp9mK-VArGCJBOk-24" value="output" style="sketch=0;pointerEvents=1;shadow=0;dashed=0;html=1;strokeColor=none;fillColor=#434445;aspect=fixed;labelPosition=center;verticalLabelPosition=bottom;verticalAlign=top;align=center;outlineConnect=0;shape=mxgraph.vvd.folder;" vertex="1" parent="1">
          <mxGeometry x="447.1" y="440" width="65.79" height="50" as="geometry" />
        </mxCell>
      </root>
    </mxGraphModel>
  </diagram>
</mxfile>
